<svg xmlns="http://www.w3.org/2000/svg" width="22" height="22"><path fill="#1a212f" d="M11 22c6.075 0 11-4.925 11-11S17.075 0 11 0 0 4.925 0 11s4.925 11 11 11z"/><path fill="#fffdfb" d="M10.587 15.825h.863s.261-.028.394-.172c.123-.131.119-.379.119-.379s-.017-1.158.52-1.329c.53-.168 1.211 1.12 1.933 1.615.545.375.96.292.96.292l1.928-.026s1.01-.063.531-.856c-.04-.065-.279-.587-1.434-1.66-1.21-1.122-1.048-.94.41-2.882.887-1.183 1.241-1.905 1.13-2.214-.105-.295-.758-.217-.758-.217l-2.172.014s-.16-.022-.28.05c-.117.07-.192.232-.192.232s-.343.915-.802 1.694c-.967 1.642-1.354 1.729-1.512 1.627-.367-.238-.276-.955-.276-1.465 0-1.591.242-2.255-.47-2.426-.236-.057-.41-.095-1.013-.101-.775-.008-1.431.002-1.802.184-.247.121-.438.39-.322.406.144.02.469.088.641.323.223.302.215.982.215.982s.128 1.874-.299 2.107c-.293.16-.694-.167-1.556-1.657-.442-.763-.776-1.606-.776-1.606s-.064-.158-.179-.242c-.139-.102-.334-.135-.334-.135l-2.063.014s-.31.008-.424.143c-.101.12-.008.368-.008.368s1.616 3.78 3.445 5.685c1.678 1.746 3.583 1.631 3.583 1.631z"/></svg>