<svg xmlns="http://www.w3.org/2000/svg" width="22" height="22" viewBox="0 0 22 22"><g><g><g><path fill="#fffdfb" d="M22 11c0 6.075-4.925 11-11 11S0 17.075 0 11 4.925 0 11 0s11 4.925 11 11z"/></g><g><path fill="#1a212f" d="M13.105 11a2.106 2.106 0 1 1-4.21 0 2.106 2.106 0 0 1 4.21 0zm3.037-2.552c.03.666.036.866.036 2.552 0 1.687-.006 1.886-.037 2.553-.028.615-.13.95-.217 1.172-.212.551-.648.987-1.199 1.2-.222.086-.557.189-1.173.217-.666.03-.865.037-2.552.037s-1.886-.007-2.552-.037c-.616-.028-.95-.131-1.173-.218a1.956 1.956 0 0 1-.727-.472 1.958 1.958 0 0 1-.472-.727c-.087-.222-.19-.556-.217-1.172-.03-.667-.037-.866-.037-2.553 0-1.686.006-1.886.037-2.552.028-.616.13-.95.217-1.173.101-.275.263-.523.473-.726.203-.21.451-.372.726-.473.222-.086.557-.19 1.173-.217.666-.03.865-.037 2.552-.037s1.886.006 2.552.037c.616.028.95.13 1.173.217.275.101.523.263.727.473.21.203.37.452.472.726.087.222.19.557.218 1.173zM14.242 11a3.243 3.243 0 1 0-6.486 0 3.243 3.243 0 0 0 6.487 0zm.887-3.372a.758.758 0 1 0-1.516 0 .758.758 0 0 0 1.516 0zM22 11c0 6.074-4.926 11-11 11S0 17.074 0 11 4.926 0 11 0s11 4.926 11 11zm-4.684 0c0-1.715-.007-1.93-.037-2.604-.031-.673-.138-1.132-.294-1.533a3.095 3.095 0 0 0-.729-1.12 3.097 3.097 0 0 0-1.119-.728c-.401-.156-.86-.263-1.533-.293-.673-.031-.889-.038-2.604-.038s-1.93.007-2.604.038c-.673.03-1.132.137-1.533.293a3.094 3.094 0 0 0-1.12.729c-.32.315-.57.697-.728 1.119-.156.401-.263.86-.293 1.533-.031.673-.038.889-.038 2.604s.007 1.93.038 2.604c.03.673.137 1.132.293 1.533.159.422.408.804.729 1.12.315.32.697.57 1.119.728.401.156.86.263 1.533.293.674.031.889.038 2.604.038 1.716 0 1.93-.007 2.604-.038.672-.03 1.132-.137 1.533-.293a3.23 3.23 0 0 0 1.848-1.848c.156-.401.263-.86.293-1.533.031-.673.038-.889.038-2.604z"/></g></g></g></svg>