<svg xmlns="http://www.w3.org/2000/svg" width="21" height="18" viewBox="0 0 21 18"><g><g><g><path fill="#ff7236" d="M16.804 6.52c-2.965 1.7-2.46 6.664.755 6.664 1.387 0 2.588-1.043 3.122-2.376 1.234-3.078-1.332-5.747-3.877-4.287z"/></g><g><path fill="#ff7236" d="M13.755 7.135c3.557 0 4.622-6.04 1.243-7.033-1.54-.452-3.29.633-3.853 2.617-.63 2.223.61 4.416 2.61 4.416z"/></g><g><g><path fill="#ff7236" d="M12.845 17.89c-.494-.136-1.37-.224-2.288-.237-.97-.014-1.986.055-2.643.237-1.775.495-4.19-.701-3.66-3.185.49-2.297 2.251-2.166 2.668-4.342.42-2.2 2.05-3.261 3.635-3.178 1.466.077 2.894 1.134 3.283 3.178.414 2.178 2.171 2.046 2.66 4.342.532 2.486-1.888 3.675-3.655 3.185z"/></g><g><path fill="#ff7236" d="M7.495 7.14c1.006 0 1.87-.585 2.35-1.48C11.273 3.002 8.93-.68 6.252.109 2.867 1.104 3.94 7.14 7.495 7.14z"/></g><g><path fill="#ff7236" d="M5.89 11.206C7.034 8.412 4.327 5 1.74 6.073-1.373 7.366 0 12.945 3.425 12.945c1.099 0 2.033-.677 2.467-1.739z"/></g></g><g><path fill="#ff7236" d="M12.848 17.886c-.494-.137-1.37-.225-2.288-.237V7.18c1.467.077 2.894 1.135 3.283 3.179.414 2.177 2.172 2.045 2.66 4.341.533 2.486-1.887 3.676-3.655 3.186z"/></g></g></g></svg>