<svg xmlns="http://www.w3.org/2000/svg" width="354" height="346" viewBox="0 0 354 346"><g><g><path fill="#fac663" fill-opacity=".15" d="M90.06 94.021c37.738 46.255-1.523 123.914-53.987 103.775C13.446 189.11.383 164.615-.005 139.561-.897 81.697 57.664 54.3 90.06 94.02zm45.833 29.077C77.862 100.822 98.245-4.212 159.585.778c27.946 2.277 49.725 30.915 46.498 66.743-3.607 40.162-37.566 68.1-70.19 55.577zM43.878 229.14c22.336-34.323 50.18-21.167 70.549-54.042 19.123-30.849 49.028-39.134 73.442-31.201 26.377 8.574 46.342 36.073 39.437 74.521-6.812 38.052 22.734 46.949 16.374 87.418-6.885 43.774-53.76 48.13-79.625 28.963-9.583-7.077-25.717-14.57-41.631-20.413-15.051-5.54-29.905-9.598-38.817-10.468-31.903-3.092-63.946-37.62-39.729-74.778zm194.148-66.834c-16.416-6.301-26.86-21.229-29.103-38.8-6.662-52.248 54.599-97.52 93.335-67.92 49.002 37.417-6.233 128.984-64.232 106.72zm.782 76.362c-1.165-52.66 64.34-91.294 99.809-57.612 42.724 40.57-14.563 122.825-70.431 101.38-17.93-6.883-28.936-23.75-29.378-43.768z"/></g></g></svg>