<svg xmlns="http://www.w3.org/2000/svg" width="91" height="91" viewBox="0 0 91 91"><g><g><path fill="#fac663" d="M0 45.5C0 20.371 20.371 0 45.5 0S91 20.371 91 45.5 70.629 91 45.5 91 0 70.629 0 45.5z"/></g><g><path fill="#fffdfb" d="M71 48.06v7.145a.86.86 0 0 1-.835.844h-4.9A5.73 5.73 0 0 1 59.584 61a5.73 5.73 0 0 1-5.68-4.951H37.642A5.73 5.73 0 0 1 31.964 61a5.73 5.73 0 0 1-5.68-4.951h-1.17c-1.447 0-2.616-.563-3.507-1.632-2.785-3.488-1.114-11.59-1.058-11.927.11-.394.445-.675.835-.675h4.232c5.457-7.089 10.692-6.695 10.915-6.695h.724l2.227-4.67c.112-.281.39-.45.724-.45h3.787c.278 0 .557.169.724.45l2.45 4.726h.167c5.513 0 8.91 5.12 9.8 6.695 9.245.169 13.477 5.457 13.7 5.682.111.113.167.338.167.507zM43.045 36.808v5.063H55.13c-1.225-1.8-3.898-5.063-7.796-5.063zm-6.571 0c-.111 0-4.176-.17-8.687 5.063H41.43v-5.063zm32.855 11.59c-.89-.957-4.956-4.839-12.696-4.839H22.05c-.445 2.532-.89 7.652.835 9.846.557.675 1.281 1.012 2.228 1.012h1.17a5.73 5.73 0 0 1 5.68-4.95 5.73 5.73 0 0 1 5.68 4.95h16.26a5.73 5.73 0 0 1 5.68-4.95 5.73 5.73 0 0 1 5.68 4.95h4.065zM39.091 35.175h6.182l-1.782-3.488h-2.73zm-3.063 20.085c0-2.25-1.837-4.107-4.065-4.107-2.227 0-4.065 1.857-4.065 4.107s1.838 4.107 4.065 4.107c2.284 0 4.121-1.856 4.065-4.107zm27.621 0c0-2.25-1.837-4.107-4.065-4.107-2.227 0-4.065 1.857-4.065 4.107s1.838 4.107 4.065 4.107c2.283 0 4.065-1.856 4.065-4.107z"/></g></g></svg>