<svg xmlns="http://www.w3.org/2000/svg" width="484" height="151"><path fill="#fab751" d="M370.83 52.052c9.243 11.032 7.183 39.54-3.192 47.43m-38.428 17.731c-8.498-17.97-4.748-69.242 2.203-82.35M91.008 43.858c11.524-.025 19.632 8.26 19.64 20.05.008 11.613-8.484 20.327-19.68 20.19-11.222-.129-19.179-8.403-19.25-19.984-.08-12.013 7.756-20.23 19.29-20.256zM285.58 19.65c22.881 30.757 18.012 89.689-3.026 111.86M154.112 12.227c27.877 40.391 20.158 99.441-2.954 124.13m91.054-125.104c.104 43.116-.343 84.946-7.87 127.198M197.04 10.174c8.141 43.372 1.006 86.391-2.928 129.466m256.104-61.508c13.248-8.14 23.28-18.708 29.976-32.158 8.819-17.756 2.075-29.16-17.693-30.9-10.583-.937-20.455 1.428-29.306 6.82-8.132 4.945-15.618 10.966-23.336 16.589-2.059 1.5-3.903 3.282-5.89 4.895-7.997 6.44-16.337 7.326-25.826 2.867-17.278-8.115-34.501-16.548-52.363-23.2C288.014 8.985 248.636 2.259 208.421.415 147.456-2.396 89.164 9.12 33.401 33.593 24.598 37.46 16.602 43.22 8.374 48.34c-1.98 1.223-3.56 3.22-4.988 5.104-4.797 6.262-4.613 12.724 1.292 17.947 45.148 39.986 95.196 70.353 156.568 77.165 59.49 6.589 117.446.233 172.81-23.585 15.178-6.518 29.744-14.505 44.564-21.872 4.709-2.34 9.393-4.742 13.95-7.347 2.77-1.588 4.015-.743 5.643 1.775 4.51 6.939 8.89 14.065 14.238 20.327 10.614 12.427 24.261 17.188 40.383 13.441 11.412-2.643 16.456-10.496 14.565-21.987-2.036-12.293-8.652-22.111-17.183-31.175" opacity=".15"/></svg>