<svg xmlns="http://www.w3.org/2000/svg" width="91" height="91"><path fill="#fac663" d="M0 45.5C0 20.371 20.371 0 45.5 0S91 20.371 91 45.5 70.629 91 45.5 91 0 70.629 0 45.5z"/><path fill="#fffdfb" d="M71.506 43.394l-2.354 1.04c.592.334.871 1.03.627 1.667l-2.01 5.227a1.412 1.412 0 01-.76.784 1.532 1.532 0 01-1.122.047l-1.45-.5c-.672 1.037-1.871 1.658-3.134 1.658-.416 0-.839-.068-1.252-.21l-12.64-4.35c-.697 1.114-1.87 1.828-3.161 2l-2.256 5.866c-.737 1.918-2.68 3.206-4.837 3.206h-6.75v2.086c0 1.15-.989 2.085-2.204 2.085h-1.469c-.405 0-.734-.311-.734-.695V52.182c0-.384.329-.695.734-.695h1.47c1.214 0 2.202.936 2.202 2.086v2.085h6.751c.31 0 .59-.185.697-.461l2.304-5.993a3.984 3.984 0 01-.884-3.247l-10.817-3.723c-1.903-.655-2.887-2.654-2.195-4.455l2.26-5.879 1.005-2.613c.693-1.8 2.804-2.733 4.707-2.077l37.115 12.775c1.392.48 1.631 1.233 1.65 1.64.018.406-.15 1.177-1.493 1.77zM28.937 53.572c0-.383-.329-.695-.734-.695h-.734v9.733h.734c.405 0 .735-.312.735-.696zm13.77-2.87a4.686 4.686 0 01-1.365-.512l-2.108 5.483c-.317.822-1.151 1.375-2.077 1.375h-6.75v1.39h6.75c1.541 0 2.93-.92 3.457-2.29zm3.286-2.433l-5.302-1.824a2.675 2.675 0 00.785 2.077.705.705 0 01.089.085c.291.27.647.486 1.055.627a3.115 3.115 0 001.106.17 2.964 2.964 0 002.267-1.135zm21.311-3.02l-.39.172-1.905 4.955 1.38.476 2.01-5.227zm-34.955-9.072c.139-.36-.058-.76-.439-.89-.381-.132.577.53.439.89zm-.94.416h-.001.001c.38.13.801-.055.94-.415-.14.36-1.322.284-.942.415l-.69-.238a3.625 3.625 0 01-1.818-1.368l-1.257 3.268c-.415 1.08.176 2.28 1.317 2.673L60.553 51.8c1.142.394 2.409-.165 2.824-1.246l1.668-4.336c-.86.288-1.897.437-2.914.437-.93 0-1.84-.123-2.58-.378zm-.001 0zm39.477 5.541c.455-.2.613-.384.643-.449-.036-.062-.21-.232-.682-.394L33.732 28.516c-1.142-.393-2.409.166-2.824 1.247l-.754 1.96-.251.653c-.415 1.08.175 2.28 1.317 2.673l.69.237 28.143 9.684c1.342.462 3.568.37 4.862-.2l1.102-.487h.001l.94-.416h.002z"/></svg>