<svg xmlns="http://www.w3.org/2000/svg" width="91" height="91"><path fill="#fac663" d="M0 45.5C0 20.371 20.371 0 45.5 0S91 20.371 91 45.5 70.629 91 45.5 91 0 70.629 0 45.5z"/><path fill="#fffdfb" d="M43.505 33.485c2.113-2.022 5.52-2.282 7.953-.616-.003-.017.012-.008.055.038a.64.64 0 01.18.19c1.098 1.158 3.574 3.714 3.896 4.33a4.67 4.67 0 01.537 2.281c-.026 1.28-.574 2.49-1.544 3.407a5.485 5.485 0 01-3.786 1.486 5.623 5.623 0 01-2.882-.79 5.634 5.634 0 01-3.043.787 5.478 5.478 0 01-3.652-1.508c-.972-.934-1.512-2.16-1.518-3.452a4.682 4.682 0 01.373-1.863c.511-1.205 1.505-2.448 3.43-4.29zm7.204.425c-1.9-1.332-4.585-1.138-6.246.451-1.768 1.691-2.708 2.85-3.143 3.876a3.506 3.506 0 00-.28 1.395c.011 1.987 1.748 3.654 3.871 3.714a4.19 4.19 0 002.589-.795.707.707 0 01.828 0 4.18 4.18 0 002.588.795c2.13-.06 3.83-1.669 3.87-3.661a3.499 3.499 0 00-.401-1.708c-.284-.544-2.792-3.128-3.676-4.067zm-9.455-6.172c0-2.061 1.401-3.738 3.123-3.738 1.722 0 3.123 1.677 3.123 3.738 0 2.06-1.4 3.738-3.123 3.738-1.722 0-3.123-1.677-3.123-3.738zm1.34 0c0 1.347.817 2.485 1.783 2.485.967 0 1.783-1.138 1.783-2.485s-.816-2.485-1.783-2.485c-.966 0-1.783 1.138-1.783 2.485zm-7.093 5.297c0-1.637 1.088-2.92 2.478-2.92 1.39 0 2.478 1.283 2.478 2.92 0 1.638-1.089 2.92-2.478 2.92-1.39 0-2.478-1.282-2.478-2.92zm1.34 0c0 .904.52 1.667 1.138 1.667.617 0 1.138-.763 1.138-1.667s-.521-1.667-1.138-1.667c-.617 0-1.138.763-1.138 1.667zm18.274 0c0-1.637 1.089-2.92 2.479-2.92 1.39 0 2.478 1.283 2.478 2.92 0 1.638-1.089 2.92-2.478 2.92-1.39 0-2.479-1.282-2.479-2.92zm1.34 0c0 .904.522 1.667 1.139 1.667s1.138-.763 1.138-1.667-.521-1.667-1.138-1.667c-.617 0-1.138.763-1.138 1.667zm-7.36-5.297c0-2.061 1.402-3.738 3.124-3.738 1.722 0 3.123 1.677 3.123 3.738 0 2.06-1.401 3.738-3.123 3.738-1.722 0-3.123-1.677-3.123-3.738zm1.34 0c0 1.347.817 2.485 1.784 2.485.966 0 1.783-1.138 1.783-2.485s-.817-2.485-1.783-2.485c-.967 0-1.783 1.138-1.783 2.485zm14.513 20.956l-8.522 7.969a.694.694 0 01-.474.183h-7.449c.362-.008.653-.285.653-.626 0-.346-.3-.627-.67-.627h-.503 7.692L64 47.808c.88-.823.88-2.16 0-2.984-.88-.822-2.312-.822-3.191 0l-4.154 3.884-.023.02c.142.36.22.75.22 1.156 0 1.854-1.614 3.363-3.597 3.363h-5.649c-.37 0-.67-.28-.67-.627 0-.346.3-.626.67-.626h5.649c1.244 0 2.256-.947 2.256-2.11 0-1.163-1.012-2.11-2.256-2.11h-5.32c.36-.01.648-.287.648-.626 0-.346-.3-.627-.67-.627h-.323 5.665c1.054 0 2.004.427 2.662 1.104l3.944-3.687a3.704 3.704 0 012.543-.985c.96 0 1.864.35 2.543.985 1.403 1.312 1.403 3.445 0 4.756zm-16.445 8.152h-2.792l-1.993 1.841.607.568a.606.606 0 01.197.443.605.605 0 01-.197.443l-7.14 6.675a.694.694 0 01-.473.184h-.002l-11.042-.029c-.37 0-.669-.282-.668-.627l.01-5.148c0-.154.061-.302.17-.416l5.944-6.217a.619.619 0 01.062-.068l3.55-3.32a.703.703 0 01.948 0l.541.507c.087-2.593 2.166-4.724 4.853-5.093a.703.703 0 01.3-.068h6.213c-.32.009.723.286.723.627 0 .346-1.077.626-.707.626h.328-5.91a.716.716 0 01-.116.01c-2.398 0-4.348 1.824-4.348 4.065 0 .359.05.714.148 1.057l5.149 4.814 2.107-1.946a.694.694 0 01.47-.18h2.548c-.343.005.331.284.331.626 0 .346-.37.626 0 .626zm-9.15 6.172l-7.664-7.166-5.34 5.585-.008 4.283 10.094.026zm3.55-3.32l-7.693-7.193-2.562 2.395 7.694 7.193z"/></svg>