<svg xmlns="http://www.w3.org/2000/svg" width="91" height="91"><defs><clipPath id="a"><path fill="#fff" d="M71.984 61.294c.064.43-.07.864-.364 1.19a1.58 1.58 0 01-1.173.516H20.553c-.45 0-.879-.188-1.173-.515a1.456 1.456 0 01-.364-1.19l3.326-22.408c.11-.736.764-1.283 1.537-1.283h4.074c.715-3.089 3.534-4.01 3.85-4.111 1.527-2.949 4.675-3.085 5.009-3.097 1.864-1.936 4.373-1.946 5.711-1.615 2.354-1.349 4.764-.682 5.954 0 1.337-.33 3.846-.321 5.71 1.615.338.012 3.481.148 5.009 3.097.311.1 3.134 1.016 3.85 4.111h4.075c.773 0 1.428.547 1.537 1.283zm-1.54.439l-3.479-22.861h-42.93l-3.479 22.86zm-40.4-24.128h30.911c-.624-1.143-1.747-2.484-1.898-2.501a1.535 1.535 0 01-1.318-1.098c-.307-1.107-2.31-1.933-3.425-1.75a1.576 1.576 0 01-1.59-.7c-.6-.956-2.79-1.393-3.813-.91a1.6 1.6 0 01-1.731-.24c-.85-.747-2.514-.744-3.36 0a1.6 1.6 0 01-1.73.24c-1.039-.49-2.628-.032-3.22.91-.33.525-.96.803-1.588.7-1.096-.179-3.113.624-3.426 1.75a1.536 1.536 0 01-1.318 1.097c-.305.035-1.924 1.456-2.494 2.502z"/></clipPath></defs><path fill="#fac663" d="M0 45.5C0 20.371 20.371 0 45.5 0S91 20.371 91 45.5 70.629 91 45.5 91 0 70.629 0 45.5z"/><path fill="#fffdfb" d="M71.984 61.294c.064.43-.07.864-.364 1.19a1.58 1.58 0 01-1.173.516H20.553c-.45 0-.879-.188-1.173-.515a1.456 1.456 0 01-.364-1.19l3.326-22.408c.11-.736.764-1.283 1.537-1.283h4.074c.715-3.089 3.534-4.01 3.85-4.111 1.527-2.949 4.675-3.085 5.009-3.097 1.864-1.936 4.373-1.946 5.711-1.615 2.354-1.349 4.764-.682 5.954 0 1.337-.33 3.846-.321 5.71 1.615.338.012 3.481.148 5.009 3.097.311.1 3.134 1.016 3.85 4.111h4.075c.773 0 1.428.547 1.537 1.283zm-1.54.439l-3.479-22.861h-42.93l-3.479 22.86zm-40.4-24.128h30.911c-.624-1.143-1.747-2.484-1.898-2.501a1.535 1.535 0 01-1.318-1.098c-.307-1.107-2.31-1.933-3.425-1.75a1.576 1.576 0 01-1.59-.7c-.6-.956-2.79-1.393-3.813-.91a1.6 1.6 0 01-1.731-.24c-.85-.747-2.514-.744-3.36 0a1.6 1.6 0 01-1.73.24c-1.039-.49-2.628-.032-3.22.91-.33.525-.96.803-1.588.7-1.096-.179-3.113.624-3.426 1.75a1.536 1.536 0 01-1.318 1.097c-.305.035-1.924 1.456-2.494 2.502z"/><path fill="none" stroke="#fffdfb" stroke-miterlimit="20" stroke-width="2" d="M71.984 61.294c.064.43-.07.864-.364 1.19a1.58 1.58 0 01-1.173.516H20.553c-.45 0-.879-.188-1.173-.515a1.456 1.456 0 01-.364-1.19l3.326-22.408c.11-.736.764-1.283 1.537-1.283h4.074c.715-3.089 3.534-4.01 3.85-4.111 1.527-2.949 4.675-3.085 5.009-3.097 1.864-1.936 4.373-1.946 5.711-1.615 2.354-1.349 4.764-.682 5.954 0 1.337-.33 3.846-.321 5.71 1.615.338.012 3.481.148 5.009 3.097.311.1 3.134 1.016 3.85 4.111h4.075c.773 0 1.428.547 1.537 1.283zm-1.54.439l-3.479-22.861h-42.93l-3.479 22.86zm-40.4-24.128h30.911c-.624-1.143-1.747-2.484-1.898-2.501a1.535 1.535 0 01-1.318-1.098c-.307-1.107-2.31-1.933-3.425-1.75a1.576 1.576 0 01-1.59-.7c-.6-.956-2.79-1.393-3.813-.91a1.6 1.6 0 01-1.731-.24c-.85-.747-2.514-.744-3.36 0a1.6 1.6 0 01-1.73.24c-1.039-.49-2.628-.032-3.22.91-.33.525-.96.803-1.588.7-1.096-.179-3.113.624-3.426 1.75a1.536 1.536 0 01-1.318 1.097c-.305.035-1.924 1.456-2.494 2.502z" clip-path="url(&quot;#a&quot;)"/></svg>