<svg xmlns="http://www.w3.org/2000/svg" width="91" height="91"><path fill="#fac663" d="M0 45.5C0 20.371 20.371 0 45.5 0S91 20.371 91 45.5 70.629 91 45.5 91 0 70.629 0 45.5z"/><path fill="#fffdfb" d="M60.18 30.639a.82.82 0 010 1.639h-7.328a.82.82 0 110-1.64zm-3.76 5.337h-3.568a.82.82 0 110-1.639h3.568a.82.82 0 110 1.64zm-3.568 2.06h7.329a.82.82 0 110 1.639h-7.329a.82.82 0 110-1.64zm3.568 5.338h-3.568a.82.82 0 110-1.639h3.568a.82.82 0 110 1.64zm-3.568 2.06h7.329a.82.82 0 110 1.639h-7.329a.82.82 0 110-1.64zm.579 15.7C53.43 67.677 48.175 73 41.715 73 35.255 73 30 67.677 30 61.134c0-4.24 2.198-8.094 5.785-10.226V24.006c0-3.312 2.66-6.006 5.93-6.006 3.27 0 5.93 2.694 5.93 6.006v26.902c3.587 2.13 5.785 5.984 5.785 10.226zm-1.626 0c0-3.598-1.974-7.556-5.152-9.19l-.633-.326v-27.61c0-2.02-2.311-4.368-4.305-4.368-1.993 0-4.304 2.347-4.304 4.368v27.61l-.633.325c-3.179 1.636-5.153 5.594-5.153 9.19 0 5.251 4.907 10.228 10.09 10.228 5.184 0 10.09-4.977 10.09-10.227zm-2.616 0c0 4.173-3.352 7.568-7.474 7.568-4.12 0-7.472-3.395-7.472-7.568 0-3.421 2.97-6.425 6.238-7.305l.43-.116V40.062a.805.805 0 011.61 0v13.65l.43.117c3.268.88 6.238 3.885 6.238 7.305zm-6.445-5.057c-.178-.802-.944-.613-1.755-.425-2.832.65-4.811 3.158-4.811 6.102 0 .834 0 1.727 1.055 1.727.56 0 .69-.93.69-1.763 0-1.497.914-3.73 3.066-4.23.8-.187 1.936-.6 1.755-1.411z"/></svg>