<svg xmlns="http://www.w3.org/2000/svg" width="91" height="91"><path fill="#fac663" d="M0 45.5C0 20.371 20.371 0 45.5 0S91 20.371 91 45.5 70.629 91 45.5 91 0 70.629 0 45.5z"/><path fill="#fffdfb" d="M68.94 31.995a486.535 486.535 0 01-1.263 3.518 3.9 3.9 0 01.18.96c.073 1.191-.193 2.207-.771 2.975-.13.681-.657 3.482-.925 5.675a9.512 9.512 0 01-1.512 4.076c-1.035 1.56-2.1 3.409-2.642 4.37a2.278 2.278 0 00-.279.84l-.872 7.039c.879.26 1.576.924 1.81 1.79l.241.897a.673.673 0 01-.304.744.825.825 0 01-.445.12h-3.562a.758.758 0 01-.675-.39l-5.237-9.986a2.665 2.665 0 01-.292-.954c-2.7-.585-7.304.65-8.396.962l-3.592 4.88c-.28.381-.29.88-.022 1.27l.544.792 1.317.185c1.365.192 2.334 1.297 2.26 2.574-.022.367-.356.668-.752.668h-4.606a.78.78 0 01-.53-.204l-3.186-2.955a2.45 2.45 0 01-.802-1.884c.018-.513.046-1.107.083-1.768v-.013c.004-.036.005-.072.006-.11l-3.795 1.4c-.405.15-.65.532-.597.933l.186 1.429c1.086.307 1.94 1.104 2.252 2.146l.043.143a.672.672 0 01-.292.757.821.821 0 01-.452.126H28.09c-.376 0-.694-.258-.744-.604l-.966-6.678c-.138-.955.39-1.892 1.313-2.333 1.33-.633 2.279-1.788 2.486-3.16l.528-3.499c.053-.35.084-.703.091-1.056l.015-.723a1.341 1.341 0 00-.059-.423c-.482-1.564-1.596-2.88-3.138-3.703-1.59-.85-2.873-1.85-3.813-2.972-1.31-1.565-1.911-3.32-1.786-5.217.125-1.882.681-5.42 3.004-7.975.697-.768 1.907-.878 2.753-.25.438.325.708.809.741 1.328a1.766 1.766 0 01-.563 1.396c-.917.866-2.023 2.467-2.08 5.178-.063 2.995 3.405 4.952 5.479 5.851a8.064 8.064 0 013.362 2.699c.965-.374 3.216-.982 8.897-1.906 4.389-.714 9.131-1.343 11.567-1.655.67-.085 1.247-.479 1.536-1.046l.44-.866a5.81 5.81 0 01-.015-.913 3.9 3.9 0 01.18-.96c-.223-.615-.86-2.373-1.253-3.49a1.087 1.087 0 01.209-1.094 1.27 1.27 0 011.3-.355c1.576.46 2.763 1.404 3.33 1.926a5.853 5.853 0 013.188 0c.56-.515 1.725-1.444 3.274-1.91.416-.125.88-.062 1.212.203.376.3.514.771.362 1.202zM34.392 56.686c-.468-1.129-1.432-2.525-2.783-4.003-.379 1.69-1.564 3.146-3.231 3.941-.36.172-.565.537-.512.909l.879 6.074h2.114a1.912 1.912 0 00-1.118-.511c-.344-.038-.616-.289-.658-.608l-.25-1.921c-.135-1.028.495-2.012 1.532-2.395zm30.276-11.72c.173-1.414.45-3.07.664-4.27-.568.198-1.213.293-1.919.278H63.4l-1.968.001c-1.308 0-2.398-.383-3.158-1.112a3.45 3.45 0 01-.48-.574c-.552.754-1.42 1.262-2.413 1.39-13.864 1.772-19.695 3.077-20.477 3.656a.796.796 0 01-.607.14.754.754 0 01-.506-.326l-.042-.07c-.67-1.155-1.748-2.099-3.036-2.657-2.404-1.043-6.424-3.357-6.344-7.14.067-3.169 1.401-5.081 2.51-6.127a.42.42 0 00.135-.337.432.432 0 00-.18-.323.504.504 0 00-.668.06c-.877.965-2.388 3.179-2.652 7.163-.126 1.896.613 4.632 4.85 6.896 1.881 1.005 3.242 2.613 3.832 4.527 0 0 .125.444.123.513l-.085 4.007a1.37 1.37 0 00.376.963c1.416 1.525 3.764 4.415 3.598 6.644a81.538 81.538 0 00-.082 1.735c-.01.318.122.629.364.853l2.965 2.751h3.36a1.167 1.167 0 00-.798-.472l-1.654-.232a.758.758 0 01-.521-.315l-.728-1.06a2.39 2.39 0 01.05-2.803l3.738-5.078a2.007 2.007 0 00-.08-2.512l-1.098-1.314a.663.663 0 01.134-.977.79.79 0 011.053.124l1.097 1.314c.656.786.91 1.76.754 2.695 1.913-.473 5.28-1.139 7.73-.708l.648-5.327c.046-.382.417-.657.83-.614.412.043.708.388.662.77l-.745 6.129c-.033.27.018.542.146.786l5.032 9.594h2.151l-.008-.032c-.136-.503-.62-.854-1.18-.854-.357 0-.665-.234-.736-.559l-1.846-8.478a2.671 2.671 0 01.531-2.232l2.068-2.61c.922-1.162 1.342-2.593 1.181-4.03-.042-.382.257-.724.67-.764.412-.039.781.239.824.621.198 1.781-.322 3.556-1.465 4.999l-2.068 2.61a1.353 1.353 0 00-.27 1.13l.907 4.163.412-3.32c.057-.467.206-.914.44-1.33.552-.978 1.635-2.856 2.693-4.451a8.175 8.175 0 001.299-3.505zm-40.3-10.684c.068-3.169 1.402-5.081 2.51-6.127a.42.42 0 00.136-.337.432.432 0 00-.18-.323.504.504 0 00-.668.06c-.877.965-2.388 3.179-2.652 7.163z"/></svg>